<svg xmlns="http://www.w3.org/2000/svg" xmlns:xlink="http://www.w3.org/1999/xlink" width="220" zoomAndPan="magnify" viewBox="0 0 165 82.499998" height="110" preserveAspectRatio="xMidYMid meet" version="1.0"><defs><clipPath id="fab3b2bd87"><path d="M 0.496094 0 L 164.503906 0 L 164.503906 82.003906 L 0.496094 82.003906 Z M 0.496094 0 " clip-rule="nonzero"/></clipPath><clipPath id="63d90e9a93"><path d="M 8.714844 26.625 L 34.585938 26.625 L 34.585938 55.699219 L 8.714844 55.699219 Z M 8.714844 26.625 " clip-rule="nonzero"/></clipPath><clipPath id="930f6de0ed"><path d="M 17.300781 26.625 C 18.753906 29.417969 21.527344 31.003906 24.398438 32.054688 C 28.332031 33.492188 31.652344 35.335938 33.320312 38.792969 L 33.3125 38.808594 C 34.09375 40.429688 34.53125 42.25 34.53125 44.175781 C 34.53125 48.457031 32.371094 52.222656 29.089844 54.425781 C 28.789062 54.628906 28.476562 54.820312 28.152344 54.996094 C 27.949219 55.09375 27.742188 55.183594 27.53125 55.269531 C 26.457031 53.53125 24.550781 52.375 22.375 52.375 C 20.195312 52.375 18.289062 53.53125 17.214844 55.269531 C 17.003906 55.183594 16.796875 55.09375 16.59375 54.996094 C 16.265625 54.84375 15.941406 54.671875 15.628906 54.492188 C 11.5 52.117188 8.714844 47.625 8.714844 42.476562 C 8.714844 39.664062 9.546875 37.046875 10.976562 34.863281 L 10.992188 34.886719 C 11.839844 36.414062 13.308594 37.535156 15.058594 37.902344 C 14.550781 36.679688 14.269531 35.339844 14.269531 33.929688 C 14.269531 31.078125 15.421875 28.5 17.28125 26.640625 Z M 17.300781 26.625 " clip-rule="nonzero"/></clipPath><clipPath id="810e4d16a9"><path d="M 138.492188 35.386719 L 156 35.386719 L 156 55.699219 L 138.492188 55.699219 Z M 138.492188 35.386719 " clip-rule="nonzero"/></clipPath><clipPath id="ce563c1421"><path d="M 147.375 35.386719 C 150.078125 35.386719 152.1875 36.101562 153.710938 37.523438 C 155.230469 38.945312 155.992188 40.941406 155.992188 43.507812 L 155.992188 52.914062 C 155.992188 54.214844 154.949219 55.269531 153.664062 55.269531 C 152.375 55.269531 151.332031 54.214844 151.332031 52.914062 L 151.332031 43.109375 C 151.332031 42.582031 151.285156 42.144531 151.191406 41.792969 C 151.097656 41.445312 150.90625 41.078125 150.621094 40.691406 C 150.339844 40.308594 149.875 40.023438 149.230469 39.832031 C 148.585938 39.640625 147.761719 39.542969 146.75 39.542969 C 146.746094 39.542969 146.742188 39.546875 146.738281 39.546875 C 146.152344 39.546875 145.546875 39.578125 144.929688 39.640625 C 144.898438 39.644531 144.863281 39.652344 144.828125 39.652344 C 143.878906 39.769531 143.152344 40.578125 143.152344 41.550781 L 143.152344 52.914062 C 143.152344 54.214844 142.109375 55.269531 140.820312 55.269531 C 139.535156 55.269531 138.492188 54.214844 138.492188 52.914062 L 138.492188 37.53125 C 138.792969 37.378906 139.105469 37.269531 139.410156 37.132812 C 139.472656 37.09375 139.523438 37.046875 139.589844 37.019531 C 139.789062 36.929688 139.996094 36.867188 140.195312 36.789062 C 140.46875 36.679688 140.742188 36.574219 141.015625 36.480469 C 141.445312 36.332031 141.871094 36.207031 142.304688 36.085938 C 142.570312 36.015625 142.835938 35.9375 143.105469 35.875 C 143.578125 35.769531 144.054688 35.691406 144.53125 35.621094 C 144.761719 35.585938 144.988281 35.539062 145.222656 35.515625 C 145.933594 35.433594 146.652344 35.386719 147.375 35.386719 Z M 147.375 35.386719 " clip-rule="nonzero"/></clipPath><clipPath id="5f9fd1766e"><path d="M 62.390625 35.386719 L 79.636719 35.386719 L 79.636719 55.699219 L 62.390625 55.699219 Z M 62.390625 35.386719 " clip-rule="nonzero"/></clipPath><clipPath id="9e8f85c867"><path d="M 70.898438 35.386719 C 73.691406 35.386719 75.804688 36.285156 77.238281 38.082031 C 78.671875 39.875 79.386719 42.085938 79.386719 44.707031 C 79.386719 45.789062 79.363281 46.585938 79.3125 47.097656 L 66.96875 47.097656 C 67.09375 48.769531 67.585938 49.886719 68.449219 50.453125 C 69.3125 51.015625 70.429688 51.296875 71.808594 51.296875 C 72.695312 51.296875 73.625 51.25 74.496094 51.050781 C 75.277344 50.878906 75.5625 50.464844 76.3125 51.050781 C 76.484375 51.1875 76.65625 51.328125 76.78125 51.511719 C 77.984375 53.300781 75.699219 54.703125 74.257812 54.980469 C 73.257812 55.175781 72.214844 55.269531 71.121094 55.269531 C 70.277344 55.269531 69.480469 55.203125 68.738281 55.0625 C 67.992188 54.925781 67.222656 54.636719 66.421875 54.199219 C 65.621094 53.757812 64.9375 53.199219 64.363281 52.523438 C 63.785156 51.84375 63.316406 50.90625 62.945312 49.707031 C 62.574219 48.507812 62.390625 47.125 62.390625 45.554688 C 62.390625 42.46875 63.070312 40 64.429688 38.15625 C 65.785156 36.3125 67.945312 35.386719 70.898438 35.386719 Z M 70.785156 39.191406 C 69.644531 39.191406 68.753906 39.5625 68.117188 40.300781 C 67.472656 41.042969 67.09375 42.242188 66.96875 43.898438 L 74.640625 43.898438 C 74.515625 42.578125 74.128906 41.464844 73.476562 40.554688 C 72.824219 39.648438 71.929688 39.191406 70.785156 39.191406 Z M 70.785156 39.191406 " clip-rule="nonzero"/></clipPath><clipPath id="908d4be3ef"><path d="M 118.644531 35.386719 L 135.894531 35.386719 L 135.894531 55.699219 L 118.644531 55.699219 Z M 118.644531 35.386719 " clip-rule="nonzero"/></clipPath><clipPath id="e4ad91d998"><path d="M 127.152344 35.386719 C 129.945312 35.386719 132.0625 36.285156 133.496094 38.082031 C 134.929688 39.875 135.644531 42.085938 135.644531 44.707031 C 135.644531 45.789062 135.621094 46.585938 135.570312 47.097656 L 123.226562 47.097656 C 123.351562 48.769531 123.84375 49.886719 124.707031 50.453125 C 125.570312 51.015625 126.6875 51.296875 128.066406 51.296875 C 128.953125 51.296875 129.882812 51.25 130.75 51.050781 C 131.535156 50.878906 131.820312 50.464844 132.570312 51.050781 C 132.742188 51.1875 132.914062 51.328125 133.039062 51.511719 C 134.242188 53.300781 131.953125 54.703125 130.511719 54.980469 C 129.515625 55.175781 128.46875 55.269531 127.378906 55.269531 C 126.535156 55.269531 125.738281 55.203125 124.996094 55.0625 C 124.25 54.925781 123.476562 54.636719 122.679688 54.199219 C 121.878906 53.757812 121.195312 53.199219 120.617188 52.523438 C 120.042969 51.84375 119.570312 50.90625 119.203125 49.707031 C 118.832031 48.507812 118.644531 47.125 118.644531 45.554688 C 118.644531 42.46875 119.328125 40 120.6875 38.15625 C 122.042969 36.3125 124.203125 35.386719 127.152344 35.386719 Z M 127.042969 39.191406 C 125.902344 39.191406 125.011719 39.5625 124.371094 40.300781 C 123.730469 41.042969 123.351562 42.242188 123.226562 43.898438 L 130.894531 43.898438 C 130.773438 42.578125 130.382812 41.464844 129.734375 40.554688 C 129.082031 39.648438 128.1875 39.191406 127.042969 39.191406 Z M 127.042969 39.191406 " clip-rule="nonzero"/></clipPath><clipPath id="45df9053cb"><path d="M 90.976562 36.460938 L 95.765625 36.460938 L 95.765625 55.699219 L 90.976562 55.699219 Z M 90.976562 36.460938 " clip-rule="nonzero"/></clipPath><clipPath id="d5e2b9baf1"><path d="M 93.304688 36.460938 C 94.59375 36.460938 95.636719 37.515625 95.636719 38.816406 L 95.636719 52.914062 C 95.636719 54.214844 94.59375 55.269531 93.304688 55.269531 C 92.019531 55.269531 90.976562 54.214844 90.976562 52.914062 L 90.976562 38.816406 C 90.976562 37.515625 92.019531 36.460938 93.304688 36.460938 Z M 93.304688 36.460938 " clip-rule="nonzero"/></clipPath><clipPath id="070609ef66"><path d="M 90.921875 29.105469 L 95.710938 29.105469 L 95.710938 33.953125 L 90.921875 33.953125 Z M 90.921875 29.105469 " clip-rule="nonzero"/></clipPath><clipPath id="b06841f45b"><path d="M 93.308594 29.105469 C 94.625 29.105469 95.691406 30.1875 95.691406 31.519531 C 95.691406 32.855469 94.625 33.933594 93.308594 33.933594 C 91.988281 33.933594 90.921875 32.855469 90.921875 31.519531 C 90.921875 30.1875 91.988281 29.105469 93.308594 29.105469 Z M 93.308594 29.105469 " clip-rule="nonzero"/></clipPath><clipPath id="fc64566394"><path d="M 81.890625 29.105469 L 86.683594 29.105469 L 86.683594 55.273438 L 81.890625 55.273438 Z M 81.890625 29.105469 " clip-rule="nonzero"/></clipPath><clipPath id="9b86114d0c"><path d="M 84.222656 29.105469 C 85.507812 29.105469 86.554688 30.160156 86.554688 31.464844 L 86.554688 52.914062 C 86.554688 54.21875 85.507812 55.273438 84.222656 55.273438 C 82.9375 55.273438 81.890625 54.21875 81.890625 52.914062 L 81.890625 31.464844 C 81.890625 30.160156 82.9375 29.105469 84.222656 29.105469 Z M 84.222656 29.105469 " clip-rule="nonzero"/></clipPath><clipPath id="131a5c8da2"><path d="M 98.964844 35.386719 L 117 35.386719 L 117 55.699219 L 98.964844 55.699219 Z M 98.964844 35.386719 " clip-rule="nonzero"/></clipPath><clipPath id="7cccac062f"><path d="M 114.519531 35.386719 C 116.144531 35.386719 117.261719 37.035156 116.683594 38.566406 L 114.4375 44.5 L 110.933594 53.769531 C 110.589844 54.671875 109.730469 55.269531 108.769531 55.269531 L 107.03125 55.269531 C 106.074219 55.269531 105.214844 54.671875 104.871094 53.769531 L 102.40625 47.257812 L 99.121094 38.566406 C 98.539062 37.035156 99.660156 35.386719 101.28125 35.386719 C 102.28125 35.386719 103.167969 36.035156 103.480469 36.996094 L 105.273438 42.484375 L 107.878906 50.484375 L 110.082031 43.742188 L 110.789062 41.570312 L 112.28125 36.996094 C 112.597656 36.035156 113.480469 35.386719 114.480469 35.386719 Z M 114.519531 35.386719 " clip-rule="nonzero"/></clipPath><clipPath id="d594255384"><path d="M 43.632812 27.863281 L 60.878906 27.863281 L 60.878906 55.699219 L 43.632812 55.699219 Z M 43.632812 27.863281 " clip-rule="nonzero"/></clipPath><clipPath id="d55c983256"><path d="M 45.964844 27.863281 C 47.25 27.863281 48.292969 28.921875 48.292969 30.21875 L 48.292969 35.683594 C 49.371094 35.488281 50.402344 35.386719 51.386719 35.386719 C 54.230469 35.386719 56.417969 36.226562 57.949219 37.902344 C 59.476562 39.578125 60.242188 41.992188 60.242188 45.140625 C 60.242188 46.875 60.019531 48.324219 59.570312 49.644531 C 59.125 50.964844 58.597656 51.96875 57.984375 52.652344 C 57.378906 53.335938 56.648438 53.894531 55.796875 54.320312 C 54.945312 54.75 54.203125 55.015625 53.578125 55.121094 C 52.949219 55.21875 52.320312 55.269531 51.683594 55.269531 C 48.949219 55.269531 46.925781 54.632812 45.609375 53.355469 C 44.289062 52.078125 43.632812 50.542969 43.632812 48.746094 L 43.632812 30.21875 C 43.632812 28.921875 44.675781 27.863281 45.964844 27.863281 Z M 51.214844 39.023438 C 50.09375 39.023438 49.101562 39.132812 48.238281 39.347656 L 48.238281 49.183594 C 48.238281 50.578125 49.386719 51.273438 51.683594 51.273438 C 53.148438 51.273438 54.167969 50.769531 54.757812 49.765625 C 55.34375 48.757812 55.636719 47.1875 55.636719 44.894531 C 55.636719 42.714844 55.257812 41.195312 54.503906 40.328125 C 53.746094 39.457031 52.652344 39.023438 51.214844 39.023438 Z M 51.214844 39.023438 " clip-rule="nonzero"/></clipPath></defs><g clip-path="url(#fab3b2bd87)"><path fill="#ffffff" d="M 0.496094 0 L 164.503906 0 L 164.503906 89.457031 L 0.496094 89.457031 Z M 0.496094 0 " fill-opacity="1" fill-rule="nonzero"/><path fill="#ffffff" d="M 0.496094 0 L 164.503906 0 L 164.503906 82.003906 L 0.496094 82.003906 Z M 0.496094 0 " fill-opacity="1" fill-rule="nonzero"/><path fill="#ffffff" d="M 0.496094 0 L 164.503906 0 L 164.503906 82.003906 L 0.496094 82.003906 Z M 0.496094 0 " fill-opacity="1" fill-rule="nonzero"/></g><g clip-path="url(#63d90e9a93)"><g clip-path="url(#930f6de0ed)"><path fill="#0fbccd" d="M 8.714844 26.625 L 34.53125 26.625 L 34.53125 55.269531 L 8.714844 55.269531 Z M 8.714844 26.625 " fill-opacity="1" fill-rule="nonzero"/></g></g><g clip-path="url(#810e4d16a9)"><g clip-path="url(#ce563c1421)"><path fill="#2a2b2e" d="M 138.492188 35.386719 L 155.992188 35.386719 L 155.992188 55.269531 L 138.492188 55.269531 Z M 138.492188 35.386719 " fill-opacity="1" fill-rule="nonzero"/></g></g><g clip-path="url(#5f9fd1766e)"><g clip-path="url(#9e8f85c867)"><path fill="#2a2b2e" d="M 62.390625 35.386719 L 79.386719 35.386719 L 79.386719 55.269531 L 62.390625 55.269531 Z M 62.390625 35.386719 " fill-opacity="1" fill-rule="nonzero"/></g></g><g clip-path="url(#908d4be3ef)"><g clip-path="url(#e4ad91d998)"><path fill="#2a2b2e" d="M 118.644531 35.386719 L 135.644531 35.386719 L 135.644531 55.269531 L 118.644531 55.269531 Z M 118.644531 35.386719 " fill-opacity="1" fill-rule="nonzero"/></g></g><g clip-path="url(#45df9053cb)"><g clip-path="url(#d5e2b9baf1)"><path fill="#2a2b2e" d="M 90.976562 36.460938 L 95.636719 36.460938 L 95.636719 55.269531 L 90.976562 55.269531 Z M 90.976562 36.460938 " fill-opacity="1" fill-rule="nonzero"/></g></g><g clip-path="url(#070609ef66)"><g clip-path="url(#b06841f45b)"><path fill="#2a2b2e" d="M 90.921875 29.105469 L 95.691406 29.105469 L 95.691406 33.933594 L 90.921875 33.933594 Z M 90.921875 29.105469 " fill-opacity="1" fill-rule="nonzero"/></g></g><g clip-path="url(#fc64566394)"><g clip-path="url(#9b86114d0c)"><path fill="#2a2b2e" d="M 81.890625 29.105469 L 86.554688 29.105469 L 86.554688 55.273438 L 81.890625 55.273438 Z M 81.890625 29.105469 " fill-opacity="1" fill-rule="nonzero"/></g></g><g clip-path="url(#131a5c8da2)"><g clip-path="url(#7cccac062f)"><path fill="#2a2b2e" d="M 98.964844 35.386719 L 116.839844 35.386719 L 116.839844 55.269531 L 98.964844 55.269531 Z M 98.964844 35.386719 " fill-opacity="1" fill-rule="nonzero"/></g></g><g clip-path="url(#d594255384)"><g clip-path="url(#d55c983256)"><path fill="#2a2b2e" d="M 43.632812 27.863281 L 60.242188 27.863281 L 60.242188 55.269531 L 43.632812 55.269531 Z M 43.632812 27.863281 " fill-opacity="1" fill-rule="nonzero"/></g></g></svg>