<svg xmlns="http://www.w3.org/2000/svg" xmlns:xlink="http://www.w3.org/1999/xlink" width="220" zoomAndPan="magnify" viewBox="0 0 165 82.499998" height="110" preserveAspectRatio="xMidYMid meet" version="1.0"><defs><clipPath id="d7aa028f54"><path d="M 0.496094 0 L 164.503906 0 L 164.503906 82.003906 L 0.496094 82.003906 Z M 0.496094 0 " clip-rule="nonzero"/></clipPath></defs><g clip-path="url(#d7aa028f54)"><path fill="#ffffff" d="M 0.496094 0 L 164.503906 0 L 164.503906 89.457031 L 0.496094 89.457031 Z M 0.496094 0 " fill-opacity="1" fill-rule="nonzero"/><path fill="#ffffff" d="M 0.496094 0 L 164.503906 0 L 164.503906 82.003906 L 0.496094 82.003906 Z M 0.496094 0 " fill-opacity="1" fill-rule="nonzero"/><path fill="#ffffff" d="M 0.496094 0 L 164.503906 0 L 164.503906 82.003906 L 0.496094 82.003906 Z M 0.496094 0 " fill-opacity="1" fill-rule="nonzero"/></g><path fill="#004042" d="M 21.78125 54.636719 C 22.554688 54.636719 23.277344 54.457031 23.953125 54.089844 C 24.632812 53.722656 25.433594 53.152344 26.363281 52.382812 L 26.363281 42.660156 C 25.976562 42.738281 25.589844 42.8125 25.203125 42.890625 C 24.816406 42.96875 24.371094 43.046875 23.867188 43.121094 C 22.089844 43.585938 20.667969 44.367188 19.605469 45.464844 C 18.539062 46.566406 18.011719 48.039062 18.011719 49.894531 C 18.011719 51.476562 18.375 52.660156 19.113281 53.453125 C 19.847656 54.242188 20.734375 54.636719 21.78125 54.636719 M 18.242188 58.167969 C 16 58.167969 14.113281 57.53125 12.585938 56.257812 C 11.058594 54.984375 10.296875 53.152344 10.296875 50.761719 C 10.296875 48.949219 11.222656 47.28125 13.078125 45.753906 C 14.9375 44.230469 17.855469 43.085938 21.839844 42.3125 C 22.457031 42.195312 23.152344 42.070312 23.925781 41.9375 C 24.699219 41.800781 25.511719 41.65625 26.363281 41.5 L 26.363281 36.929688 C 26.363281 34.308594 26.042969 32.464844 25.40625 31.402344 C 24.765625 30.34375 23.769531 29.8125 22.417969 29.8125 C 21.488281 29.8125 20.753906 30.113281 20.214844 30.710938 C 19.671875 31.308594 19.324219 32.339844 19.167969 33.804688 L 19.054688 34.441406 C 18.976562 36.101562 18.570312 37.316406 17.835938 38.085938 C 17.101562 38.859375 16.191406 39.246094 15.109375 39.246094 C 14.105469 39.246094 13.273438 38.9375 12.617188 38.320312 C 11.957031 37.703125 11.628906 36.871094 11.628906 35.832031 C 11.628906 34.25 12.179688 32.917969 13.28125 31.835938 C 14.382812 30.757812 15.84375 29.949219 17.660156 29.40625 C 19.480469 28.867188 21.449219 28.597656 23.578125 28.597656 C 27.019531 28.597656 29.675781 29.4375 31.554688 31.113281 C 33.429688 32.792969 34.367188 35.523438 34.367188 39.300781 L 34.367188 52.089844 C 34.367188 53.828125 35.179688 54.695312 36.800781 54.695312 L 38.078125 54.695312 L 38.601562 55.160156 C 37.863281 56.085938 37.0625 56.800781 36.191406 57.300781 C 35.324219 57.800781 34.09375 58.050781 32.511719 58.050781 C 30.808594 58.050781 29.464844 57.65625 28.480469 56.867188 C 27.492188 56.074219 26.84375 55.023438 26.535156 53.710938 C 25.375 54.945312 24.1875 55.996094 22.96875 56.867188 C 21.75 57.734375 20.175781 58.167969 18.242188 58.167969 " fill-opacity="1" fill-rule="nonzero"/><path fill="#004042" d="M 56.523438 56.199219 C 57.757812 56.199219 58.839844 55.816406 59.769531 55.042969 C 60.699219 54.273438 61.429688 52.949219 61.972656 51.078125 C 62.515625 49.207031 62.785156 46.632812 62.785156 43.355469 C 62.785156 40.074219 62.535156 37.546875 62.03125 35.773438 C 61.527344 34 60.824219 32.761719 59.914062 32.070312 C 59.003906 31.375 57.914062 31.027344 56.636719 31.027344 C 54.820312 31.027344 53.136719 31.53125 51.589844 32.53125 L 51.589844 54.753906 C 52.324219 55.214844 53.078125 55.574219 53.855469 55.824219 C 54.625 56.074219 55.515625 56.199219 56.523438 56.199219 M 50.316406 58.050781 L 40.511719 57.300781 L 40.511719 56.722656 L 41.09375 56.605469 C 42.601562 56.257812 43.355469 55.292969 43.355469 53.710938 L 43.355469 22.753906 C 43.355469 21.941406 43.230469 21.324219 42.980469 20.902344 C 42.726562 20.476562 42.214844 20.1875 41.441406 20.03125 L 40.628906 19.800781 L 40.628906 19.222656 L 50.953125 16.734375 L 51.648438 17.253906 L 51.417969 25.414062 L 51.417969 31.257812 C 52.695312 30.371094 54.085938 29.707031 55.59375 29.261719 C 57.101562 28.820312 58.628906 28.597656 60.175781 28.597656 C 62.378906 28.597656 64.332031 29.109375 66.035156 30.128906 C 67.734375 31.152344 69.078125 32.734375 70.066406 34.875 C 71.050781 37.015625 71.542969 39.765625 71.542969 43.121094 C 71.542969 46.480469 70.992188 49.265625 69.890625 51.484375 C 68.789062 53.703125 67.320312 55.371094 65.484375 56.488281 C 63.644531 57.609375 61.625 58.167969 59.421875 58.167969 C 57.992188 58.167969 56.550781 57.972656 55.101562 57.589844 C 53.652344 57.203125 52.363281 56.664062 51.242188 55.96875 Z M 50.316406 58.050781 " fill-opacity="1" fill-rule="nonzero"/><path fill="#004042" d="M 81.636719 25.589844 C 80.320312 25.589844 79.207031 25.175781 78.300781 24.34375 C 77.390625 23.515625 76.9375 22.464844 76.9375 21.191406 C 76.9375 19.878906 77.390625 18.816406 78.300781 18.007812 C 79.207031 17.195312 80.320312 16.792969 81.636719 16.792969 C 82.949219 16.792969 84.050781 17.195312 84.941406 18.007812 C 85.828125 18.816406 86.273438 19.878906 86.273438 21.191406 C 86.273438 22.464844 85.828125 23.515625 84.941406 24.34375 C 84.050781 25.175781 82.949219 25.589844 81.636719 25.589844 M 74.789062 57.300781 L 74.789062 56.722656 L 75.601562 56.488281 C 76.375 56.257812 76.90625 55.910156 77.199219 55.449219 C 77.488281 54.984375 77.632812 54.367188 77.632812 53.597656 L 77.632812 35.484375 C 77.632812 34.671875 77.488281 34.066406 77.199219 33.660156 C 76.90625 33.253906 76.375 32.976562 75.601562 32.820312 L 74.789062 32.648438 L 74.789062 32.070312 L 85.40625 28.65625 L 85.984375 29.234375 L 85.8125 37.449219 L 85.8125 53.652344 C 85.8125 54.425781 85.957031 55.042969 86.246094 55.507812 C 86.535156 55.96875 87.046875 56.316406 87.785156 56.546875 L 88.363281 56.722656 L 88.363281 57.300781 Z M 74.789062 57.300781 " fill-opacity="1" fill-rule="nonzero"/><path fill="#004042" d="M 91.667969 57.300781 L 91.667969 56.722656 L 92.363281 56.488281 C 93.757812 56.027344 94.453125 55.0625 94.453125 53.597656 L 94.453125 22.636719 C 94.453125 21.867188 94.296875 21.277344 93.988281 20.871094 C 93.679688 20.46875 93.136719 20.167969 92.363281 19.976562 L 91.609375 19.800781 L 91.609375 19.222656 L 102.226562 16.734375 L 102.921875 17.253906 L 102.6875 25.355469 L 102.6875 45.148438 C 102.6875 46.574219 102.699219 47.992188 102.71875 49.402344 C 102.738281 50.808594 102.746094 52.207031 102.746094 53.597656 C 102.746094 54.367188 102.902344 54.996094 103.210938 55.476562 C 103.519531 55.960938 104.042969 56.316406 104.777344 56.546875 L 105.53125 56.722656 L 105.53125 57.300781 Z M 91.667969 57.300781 " fill-opacity="1" fill-rule="nonzero"/><path fill="#004042" d="M 115.621094 25.589844 C 114.308594 25.589844 113.195312 25.175781 112.289062 24.34375 C 111.378906 23.515625 110.925781 22.464844 110.925781 21.191406 C 110.925781 19.878906 111.378906 18.816406 112.289062 18.007812 C 113.195312 17.195312 114.308594 16.792969 115.621094 16.792969 C 116.9375 16.792969 118.039062 17.195312 118.929688 18.007812 C 119.816406 18.816406 120.261719 19.878906 120.261719 21.191406 C 120.261719 22.464844 119.816406 23.515625 118.929688 24.34375 C 118.039062 25.175781 116.9375 25.589844 115.621094 25.589844 M 108.777344 57.300781 L 108.777344 56.722656 L 109.589844 56.488281 C 110.363281 56.257812 110.894531 55.910156 111.1875 55.449219 C 111.476562 54.984375 111.621094 54.367188 111.621094 53.597656 L 111.621094 35.484375 C 111.621094 34.671875 111.476562 34.066406 111.1875 33.660156 C 110.894531 33.253906 110.363281 32.976562 109.589844 32.820312 L 108.777344 32.648438 L 108.777344 32.070312 L 119.394531 28.65625 L 119.972656 29.234375 L 119.800781 37.449219 L 119.800781 53.652344 C 119.800781 54.425781 119.945312 55.042969 120.234375 55.507812 C 120.523438 55.96875 121.035156 56.316406 121.769531 56.546875 L 122.351562 56.722656 L 122.351562 57.300781 Z M 108.777344 57.300781 " fill-opacity="1" fill-rule="nonzero"/><path fill="#004042" d="M 140.15625 57.011719 C 141.511719 57.011719 142.59375 56.625 143.40625 55.851562 C 144.21875 55.082031 144.804688 53.710938 145.175781 51.746094 C 145.539062 49.777344 145.726562 47 145.726562 43.410156 C 145.726562 39.785156 145.539062 36.988281 145.175781 35.019531 C 144.804688 33.054688 144.21875 31.683594 143.40625 30.910156 C 142.59375 30.140625 141.511719 29.753906 140.15625 29.753906 C 138.804688 29.753906 137.710938 30.140625 136.878906 30.910156 C 136.046875 31.683594 135.449219 33.054688 135.082031 35.019531 C 134.714844 36.988281 134.53125 39.785156 134.53125 43.410156 C 134.53125 47 134.714844 49.777344 135.082031 51.746094 C 135.449219 53.710938 136.046875 55.082031 136.878906 55.851562 C 137.710938 56.625 138.804688 57.011719 140.15625 57.011719 M 140.15625 58.167969 C 137.21875 58.167969 134.667969 57.558594 132.5 56.34375 C 130.335938 55.128906 128.664062 53.402344 127.484375 51.164062 C 126.304688 48.929688 125.714844 46.304688 125.714844 43.296875 C 125.714844 40.285156 126.34375 37.683594 127.601562 35.484375 C 128.855469 33.285156 130.578125 31.585938 132.761719 30.390625 C 134.945312 29.195312 137.410156 28.597656 140.15625 28.597656 C 142.902344 28.597656 145.355469 29.1875 147.523438 30.363281 C 149.6875 31.539062 151.398438 33.226562 152.65625 35.425781 C 153.910156 37.625 154.542969 40.25 154.542969 43.296875 C 154.542969 46.34375 153.949219 48.976562 152.773438 51.195312 C 151.59375 53.414062 149.929688 55.128906 147.785156 56.34375 C 145.636719 57.558594 143.09375 58.167969 140.15625 58.167969 " fill-opacity="1" fill-rule="nonzero"/><path fill="#004042" d="M 38.203125 64.34375 C 30.960938 64.957031 19.007812 70.589844 13.410156 70.015625 C 11.460938 69.816406 10.296875 68.625 10.296875 66.90625 C 10.296875 65.191406 11.691406 63.800781 13.410156 63.800781 L 38.203125 63.800781 Z M 38.203125 64.34375 " fill-opacity="1" fill-rule="nonzero"/></svg>